<!-- Generated by IcoMoon.io -->
<svg version="1.1" xmlns="http://www.w3.org/2000/svg" width="24" height="24" viewBox="0 0 32 32">
<title>Basket_card</title>
<path fill="#fff" d="M31.298 7.798c-0.607-0.741-1.55-1.192-2.527-1.192h-20.517l-0.64-2.384c-0.371-1.386-1.65-2.352-3.134-2.352h-3.436c-0.572 0-1.045 0.451-1.045 0.999 0 0.547 0.471 0.999 1.045 0.999h3.436c0.505 0 0.944 0.322 1.078 0.805l4.11 15.658c0.371 1.386 1.65 2.352 3.134 2.352h13.442c1.482 0 2.797-0.967 3.134-2.352l2.527-9.923c0.236-0.904 0.034-1.87-0.607-2.611v-0zM29.851 9.956l-2.527 9.923c-0.134 0.483-0.573 0.805-1.078 0.805h-13.443c-0.505 0-0.944-0.322-1.078-0.805l-2.931-11.243h19.979c0.337 0 0.674 0.161 0.877 0.419 0.201 0.257 0.301 0.579 0.201 0.901l-0-0z"></path>
<path fill="#fff" d="M13.511 23.97c-1.92 0-3.503 1.514-3.503 3.35s1.583 3.35 3.503 3.35c1.92 0.001 3.503-1.513 3.503-3.349s-1.583-3.351-3.503-3.351v0zM13.511 28.642c-0.775 0-1.382-0.58-1.382-1.321s0.607-1.321 1.382-1.321c0.775 0 1.382 0.58 1.382 1.321-0.001 0.71-0.641 1.321-1.382 1.321z"></path>
<path fill="#fff" d="M25.1 23.971c-1.92 0-3.503 1.514-3.503 3.35s1.583 3.35 3.503 3.35c1.92 0 3.503-1.514 3.503-3.35-0.033-1.835-1.583-3.35-3.503-3.35zM25.1 28.642c-0.775 0-1.382-0.58-1.382-1.321s0.607-1.321 1.382-1.321c0.775 0 1.382 0.58 1.382 1.321 0 0.71-0.641 1.321-1.382 1.321z"></path>
</svg>
