<svg aria-hidden="true" style="position: absolute; width: 0; height: 0; overflow: hidden;" version="1.1" xmlns="http://www.w3.org/2000/svg" xmlns:xlink="http://www.w3.org/1999/xlink">
<defs>
<symbol id="icon-Empty-Cart" viewBox="0 0 32 32">
<path fill="#43464e" style="fill: var(--color1, #43464e)" d="M31.298 7.798c-0.607-0.741-1.55-1.192-2.527-1.192h-20.517l-0.64-2.384c-0.371-1.386-1.65-2.352-3.134-2.352h-3.436c-0.572 0-1.045 0.45-1.045 0.999 0 0.547 0.471 0.999 1.045 0.999h3.436c0.505 0 0.944 0.322 1.078 0.805l4.11 15.658c0.371 1.386 1.65 2.352 3.134 2.352h13.442c1.482 0 2.797-0.967 3.133-2.352l2.527-9.923c0.236-0.904 0.034-1.87-0.607-2.611v-0zM29.851 9.956l-2.527 9.923c-0.134 0.483-0.572 0.805-1.078 0.805h-13.443c-0.505 0-0.944-0.322-1.078-0.805l-2.931-11.243h19.979c0.337 0 0.674 0.161 0.876 0.419 0.201 0.257 0.301 0.579 0.201 0.901l-0-0z"></path>
<path fill="#43464e" style="fill: var(--color1, #43464e)" d="M13.511 23.97c-1.92 0-3.503 1.514-3.503 3.35s1.583 3.35 3.503 3.35c1.92 0.001 3.503-1.513 3.503-3.349s-1.583-3.351-3.503-3.351v0zM13.511 28.642c-0.775 0-1.382-0.58-1.382-1.321s0.607-1.321 1.382-1.321c0.775 0 1.382 0.58 1.382 1.321-0.001 0.71-0.641 1.321-1.382 1.321z"></path>
<path fill="#43464e" style="fill: var(--color1, #43464e)" d="M25.1 23.97c-1.92 0-3.503 1.514-3.503 3.35s1.583 3.35 3.503 3.35c1.92 0 3.503-1.514 3.503-3.35-0.033-1.835-1.583-3.35-3.503-3.35zM25.1 28.642c-0.775 0-1.382-0.58-1.382-1.321s0.607-1.321 1.382-1.321c0.775 0 1.382 0.58 1.382 1.321 0 0.71-0.641 1.321-1.382 1.321z"></path>
</symbol>
<symbol id="icon-logo-transparent" viewBox="0 0 32 32">
<path fill="#1dcf65" style="fill: var(--color2, #1dcf65)" d="M26.554 22.372c0.021 0.248-0.173 0.462-0.42 0.462h-20.305c-0.246 0-0.44-0.213-0.42-0.461l1.455-17.759c0.018-0.221 0.201-0.39 0.42-0.39h17.334c0.219 0 0.401 0.169 0.419 0.389l1.516 17.759z"></path>
<path fill="#000" style="fill: var(--color3, #000)" d="M28.175 27.006c0.025 0.31-0.217 0.576-0.524 0.576h-23.284c-0.307 0-0.549-0.264-0.525-0.574l1.672-21.273c0.022-0.277 0.25-0.49 0.525-0.49h19.871c0.274 0 0.502 0.212 0.525 0.488l1.741 21.273z"></path>
<path fill="#fff" style="fill: var(--color4, #fff)" d="M15.55 20.835c-3.031 0-5.496-2.991-5.496-6.667 0-0.191 0.154-0.347 0.343-0.347s0.343 0.155 0.343 0.347c0 3.294 2.158 5.974 4.81 5.974s4.81-2.68 4.81-5.974c0-0.191 0.154-0.347 0.343-0.347s0.343 0.155 0.343 0.347c-0 3.676-2.466 6.667-5.496 6.667z"></path>
<path fill="#fff" style="fill: var(--color4, #fff)" d="M18.933 14.075c-0.088 0-0.243-0.102-0.243-0.102v-0.49l1.779-1.797c0.064-0.065 0.152-0.102 0.243-0.102s0.178 0.036 0.243 0.102l1.761 1.78c0.134 0.135 0.134 0.355 0 0.49s-0.351 0.135-0.485 0l-1.519-1.534-1.536 1.552c-0.067 0.068-0.155 0.102-0.243 0.102z"></path>
</symbol>
<symbol id="icon-arrow-up" viewBox="0 0 64 32">
<path stroke-linejoin="round" stroke-linecap="round" stroke-miterlimit="4" stroke-width="8" d="M8 28l24-24 24 24"></path>
</symbol>
</defs>
</svg>
